<svg width="23" height="22" viewBox="0 0 23 22" fill="none" xmlns="http://www.w3.org/2000/svg">
<path d="M16.0431 8.32599H21.984C22.5454 8.32599 23.0003 8.78105 23.0003 9.3423V14.7537C23.0003 16.8165 21.3281 18.4888 19.2653 18.4888H19.2476C17.1848 18.4891 15.5122 16.8171 15.512 14.7542V8.85723C15.5119 8.78747 15.5256 8.71838 15.5523 8.65391C15.579 8.58945 15.6181 8.53088 15.6674 8.48154C15.7168 8.4322 15.7753 8.39307 15.8398 8.36638C15.9043 8.33969 15.9734 8.32597 16.0431 8.32599Z" fill="#5A62C3"/>
<path d="M20.0584 7.25605C21.3877 7.25605 22.4654 6.1784 22.4654 4.84905C22.4654 3.5197 21.3877 2.44205 20.0584 2.44205C18.729 2.44205 17.6514 3.5197 17.6514 4.84905C17.6514 6.1784 18.729 7.25605 20.0584 7.25605Z" fill="#5A62C3"/>
<path d="M12.5697 7.25561C14.4898 7.25561 16.0464 5.699 16.0464 3.77883C16.0464 1.85867 14.4898 0.302063 12.5697 0.302063C10.6495 0.302063 9.0929 1.85867 9.0929 3.77883C9.0929 5.699 10.6495 7.25561 12.5697 7.25561Z" fill="#7B83EB"/>
<path d="M17.2056 8.32599H7.39909C6.84449 8.33973 6.40578 8.8 6.41863 9.35461V15.5266C6.34118 18.8548 8.97423 21.6167 12.3023 21.6981C15.6304 21.6167 18.2634 18.8548 18.1861 15.5266V9.35461C18.1989 8.8 17.7602 8.33973 17.2056 8.32599Z" fill="#7B83EB"/>
<path opacity="0.1" d="M12.8372 8.32599V16.9751C12.8359 17.1691 12.7773 17.3583 12.6689 17.5192C12.5604 17.68 12.4068 17.8052 12.2274 17.8791C12.1106 17.9285 11.9851 17.9539 11.8583 17.9539H6.88918C6.81964 17.7774 6.75549 17.6008 6.70195 17.4191C6.5147 16.8053 6.41919 16.1672 6.41849 15.5255V9.35299C6.40564 8.79929 6.84363 8.33973 7.39734 8.32608L12.8372 8.32599Z" fill="#01274E"/>
<path opacity="0.2" d="M12.3025 8.32599V17.51C12.3025 17.6368 12.2771 17.7623 12.2277 17.8791C12.1538 18.0585 12.0286 18.212 11.8678 18.3205C11.7069 18.429 11.5177 18.4876 11.3237 18.4888H7.14099C7.05007 18.3123 6.96445 18.1358 6.88961 17.9539C6.8177 17.7791 6.7552 17.6006 6.70237 17.4191C6.51513 16.8053 6.41961 16.1672 6.41892 15.5255V9.35299C6.40607 8.79929 6.84406 8.33973 7.39776 8.32608L12.3025 8.32599Z" fill="#01274E"/>
<path opacity="0.2" d="M12.3026 8.32599V16.4402C12.2986 16.9791 11.8627 17.415 11.3238 17.4191H6.70237C6.51513 16.8053 6.41961 16.1672 6.41892 15.5255V9.35299C6.40607 8.79929 6.84406 8.33973 7.39776 8.32608L12.3026 8.32599Z" fill="#01274E"/>
<path opacity="0.2" d="M11.7678 8.32599V16.4402C11.7636 16.9791 11.3278 17.415 10.7889 17.4191H6.70237C6.51513 16.8053 6.41961 16.1672 6.41892 15.5255V9.35299C6.40607 8.79929 6.84406 8.33973 7.39776 8.32608L11.7678 8.32599Z" fill="#01274E"/>
<path opacity="0.1" d="M12.8373 5.5603V7.24514C12.7463 7.25053 12.6607 7.25592 12.5698 7.25592C12.4789 7.25592 12.3932 7.25053 12.3023 7.24514C12.1218 7.23316 11.9428 7.20452 11.7675 7.15961C11.2335 7.03314 10.737 6.78208 10.3187 6.42696C9.90034 6.07183 9.57199 5.62273 9.36048 5.11638C9.28663 4.94389 9.22933 4.76478 9.18933 4.58145H11.8584C12.3981 4.58352 12.8352 5.02052 12.8373 5.5603Z" fill="#01274E"/>
<path opacity="0.2" d="M12.3025 6.09475V7.24475C12.122 7.23277 11.9429 7.20414 11.7677 7.15922C11.2337 7.03274 10.7373 6.78168 10.3189 6.42656C9.90059 6.07143 9.57225 5.62234 9.36075 5.116H11.3237C11.8634 5.11797 12.3004 5.55506 12.3025 6.09475Z" fill="#01274E"/>
<path opacity="0.2" d="M12.3025 6.09475V7.24475C12.122 7.23277 11.9429 7.20414 11.7677 7.15922C11.2337 7.03274 10.7373 6.78168 10.3189 6.42656C9.90059 6.07143 9.57225 5.62234 9.36075 5.116H11.3237C11.8634 5.11797 12.3004 5.55506 12.3025 6.09475Z" fill="#01274E"/>
<path opacity="0.2" d="M11.7678 6.09484V7.15931C11.2338 7.03284 10.7373 6.78176 10.3189 6.42662C9.90059 6.07149 9.57224 5.62237 9.36075 5.116H10.7889C11.3287 5.11806 11.7657 5.55515 11.7678 6.09484Z" fill="#01274E"/>
<path d="M0.980464 5.11609H10.7869C11.3285 5.11609 11.7675 5.55506 11.7675 6.09655V15.9031C11.7675 16.4446 11.3285 16.8835 10.787 16.8835H0.980464C0.438976 16.8835 0 16.4446 0 15.9031V6.09664C0 5.55497 0.438976 5.11609 0.980464 5.11609Z" fill="url(#paint0_linear_1_195)"/>
<path d="M8.46439 8.84874H6.50401V14.1869H5.25509V8.84874H3.30386V7.8132H8.46439V8.84874Z" fill="white"/>
<defs>
<linearGradient id="paint0_linear_1_195" x1="204.424" y1="-71.4907" x2="972.33" y2="1258.47" gradientUnits="userSpaceOnUse">
<stop stop-color="#5A62C3"/>
<stop offset="0.5" stop-color="#4D55BD"/>
<stop offset="1" stop-color="#3940AB"/>
</linearGradient>
</defs>
</svg>
